<svg width="64" height="64" viewBox="0 0 64 64" fill="none" xmlns="http://www.w3.org/2000/svg">
<path d="M19.716 31.808C20.836 32.1627 21.7133 32.76 22.348 33.6C22.9826 34.4214 23.3 35.4387 23.3 36.652C23.3 38.3694 22.628 39.6947 21.284 40.628C19.9586 41.5427 18.0173 42 15.46 42H5.32397V22.4H14.9C17.2893 22.4 19.1186 22.8574 20.388 23.772C21.676 24.6867 22.32 25.928 22.32 27.496C22.32 28.448 22.0866 29.2974 21.62 30.044C21.172 30.7907 20.5373 31.3787 19.716 31.808ZM9.83197 25.816V30.436H14.34C15.46 30.436 16.3093 30.24 16.888 29.848C17.4666 29.456 17.756 28.8774 17.756 28.112C17.756 27.3467 17.4666 26.7774 16.888 26.404C16.3093 26.012 15.46 25.816 14.34 25.816H9.83197ZM15.124 38.584C16.3186 38.584 17.2146 38.388 17.812 37.996C18.428 37.604 18.736 36.9974 18.736 36.176C18.736 34.552 17.532 33.74 15.124 33.74H9.83197V38.584H15.124Z" fill="white"/>
<path d="M42.7501 40.32C41.8168 40.9547 40.6408 41.4494 39.2221 41.804C37.8221 42.1587 36.3288 42.336 34.7421 42.336C32.7635 42.336 31.0835 42.0934 29.7021 41.608C28.3208 41.104 27.2755 40.4134 26.5661 39.536C25.8568 38.64 25.5021 37.6227 25.5021 36.484C25.5021 35.4387 25.7915 34.5147 26.3701 33.712C26.9488 32.9094 27.7421 32.312 28.7501 31.92C27.9848 31.5094 27.3875 30.9494 26.9581 30.24C26.5475 29.5307 26.3421 28.7374 26.3421 27.86C26.3421 26.796 26.6688 25.8254 27.3221 24.948C27.9755 24.0707 28.9648 23.3707 30.2901 22.848C31.6155 22.3254 33.2395 22.064 35.1621 22.064C36.4315 22.064 37.6728 22.1947 38.8861 22.456C40.0995 22.6987 41.1541 23.0347 42.0501 23.464L40.7901 26.936C39.0728 26.1334 37.2528 25.732 35.3301 25.732C33.8741 25.732 32.7728 25.956 32.0261 26.404C31.2981 26.8334 30.9341 27.4214 30.9341 28.168C30.9341 28.8587 31.1768 29.3907 31.6621 29.764C32.1661 30.1187 32.9221 30.296 33.9301 30.296H39.2781V33.88H33.6501C32.5115 33.88 31.6341 34.076 31.0181 34.468C30.4021 34.86 30.0941 35.4294 30.0941 36.176C30.0941 36.96 30.4861 37.576 31.2701 38.024C32.0728 38.4534 33.2955 38.668 34.9381 38.668C36.0955 38.668 37.2528 38.5187 38.4101 38.22C39.5675 37.9027 40.5475 37.464 41.3501 36.904L42.7501 40.32Z" fill="#FE891D"/>
<path d="M54.5379 25.928C52.9699 25.928 51.7846 26.2734 50.9819 26.964C50.1792 27.636 49.7779 28.6534 49.7779 30.016V31.22H57.8419V34.86H49.7779V42H45.2419V30.044C45.2419 27.524 46.0259 25.564 47.5939 24.164C49.1806 22.764 51.3926 22.064 54.2299 22.064C55.3499 22.064 56.4046 22.1854 57.3939 22.428C58.3832 22.652 59.2419 22.988 59.9699 23.436L58.5699 27.02C57.4499 26.292 56.1059 25.928 54.5379 25.928Z" fill="white"/>
<path fill-rule="evenodd" clip-rule="evenodd" d="M21.284 40.628C19.9586 41.5427 18.0173 42 15.46 42H5.32397V22.4H14.9C17.2893 22.4 19.1186 22.8574 20.388 23.772C21.676 24.6867 22.32 25.928 22.32 27.496C22.32 28.2125 22.1878 28.8708 21.9235 29.471C21.8366 29.6683 21.7354 29.8593 21.62 30.044C21.172 30.7907 20.5373 31.3787 19.716 31.808C20.836 32.1627 21.7133 32.76 22.348 33.6C22.3592 33.6145 22.3703 33.6291 22.3812 33.6437C22.5399 33.8545 22.6781 34.078 22.7956 34.3141C23.1104 34.9464 23.2778 35.6697 23.2979 36.484C23.2993 36.5396 23.3 36.5956 23.3 36.652C23.3 37.4643 23.1496 38.1888 22.849 38.8257C22.514 39.5354 21.9923 40.1361 21.284 40.628ZM24.5033 41.7392C24.0763 42.2373 23.5735 42.6905 22.9952 43.0921L22.988 43.0971C20.9458 44.5065 18.2966 45 15.46 45H2.32397V19.4H14.9C17.6032 19.4 20.1493 19.9061 22.1334 21.332C23.1236 22.037 23.8962 22.8967 24.4325 23.8807C24.5795 23.6332 24.7407 23.3916 24.916 23.1562C25.9898 21.7143 27.4987 20.724 29.1895 20.0572C30.9644 19.3572 32.9864 19.064 35.1621 19.064C36.6315 19.064 38.0775 19.2147 39.4961 19.5186C40.889 19.7987 42.1842 20.2016 43.3465 20.7586L45.662 21.8681C47.9534 19.8741 50.9392 19.064 54.2299 19.064C55.5578 19.064 56.8455 19.207 58.0826 19.5081C59.3253 19.7919 60.4939 20.2359 61.5422 20.881L63.6758 22.194L60.8419 29.4489V37.86H52.7779V45H42.2419V43.9696C41.5179 44.2682 40.7521 44.5137 39.9539 44.7134C38.2922 45.1339 36.5513 45.336 34.7421 45.336C32.5359 45.336 30.4988 45.0677 28.7077 44.4384L28.6907 44.4325L28.6738 44.4263C27.0665 43.8398 25.6143 42.9781 24.5033 41.7392ZM26.0481 38.7442C26.1922 39.0179 26.3649 39.2819 26.5661 39.536C27.2755 40.4134 28.3208 41.104 29.7021 41.608C31.0835 42.0934 32.7635 42.336 34.7421 42.336C36.3288 42.336 37.8221 42.1587 39.2221 41.804C40.3944 41.511 41.401 41.1223 42.2419 40.638C42.4186 40.5362 42.588 40.4302 42.7501 40.32L41.3501 36.904C40.5971 37.4294 39.6879 37.848 38.6226 38.1598C38.5525 38.1803 38.4816 38.2004 38.4101 38.22C37.2528 38.5187 36.0955 38.668 34.9381 38.668C33.2955 38.668 32.0728 38.4534 31.2701 38.024C30.4861 37.576 30.0941 36.96 30.0941 36.176C30.0941 35.4294 30.4021 34.86 31.0181 34.468C31.6341 34.076 32.5115 33.88 33.6501 33.88H39.2781V30.296H33.9301C32.9221 30.296 32.1661 30.1187 31.6621 29.764C31.1768 29.3907 30.9341 28.8587 30.9341 28.168C30.9341 27.4214 31.2981 26.8334 32.0261 26.404C32.7728 25.956 33.8741 25.732 35.3301 25.732C36.4662 25.732 37.5664 25.8721 38.6307 26.1524C39.3677 26.3464 40.0875 26.6076 40.7901 26.936L42.0501 23.464C41.4316 23.1677 40.7376 22.9158 39.9679 22.7084C39.72 22.6416 39.4642 22.5794 39.2006 22.5218C39.097 22.4992 38.9922 22.4772 38.8861 22.456C37.6728 22.1947 36.4315 22.064 35.1621 22.064C33.2395 22.064 31.6155 22.3254 30.2901 22.848C28.9648 23.3707 27.9755 24.0707 27.3221 24.948C26.6688 25.8254 26.3421 26.796 26.3421 27.86C26.3421 28.4789 26.4443 29.056 26.6487 29.5913C26.734 29.8148 26.8372 30.0311 26.9581 30.24C27.3875 30.9494 27.9848 31.5094 28.7501 31.92C27.7421 32.312 26.9488 32.9094 26.3701 33.712C26.3317 33.7654 26.2945 33.8192 26.2586 33.8736C26.1619 34.0202 26.0744 34.1707 25.9963 34.3251C25.6668 34.9757 25.5021 35.6953 25.5021 36.484C25.5021 36.5403 25.503 36.5963 25.5047 36.652C25.5281 37.4034 25.7092 38.1008 26.0481 38.7442ZM45.2419 42H49.7779V34.86H57.8419V31.22H49.7779V30.016C49.7779 29.3298 49.8797 28.7311 50.0833 28.22C50.2839 27.7163 50.5835 27.2976 50.9819 26.964C51.7846 26.2734 52.9699 25.928 54.5379 25.928C55.097 25.928 55.6277 25.9743 56.1299 26.0669C57.0359 26.2339 57.8493 26.5516 58.5699 27.02L59.9699 23.436C59.2419 22.988 58.3832 22.652 57.3939 22.428C57.3899 22.427 57.3859 22.4261 57.3819 22.4251C57.3096 22.4074 57.237 22.3904 57.164 22.3741C56.2416 22.1674 55.2636 22.064 54.2299 22.064C51.3926 22.064 49.1806 22.764 47.5939 24.164C46.0259 25.564 45.2419 27.524 45.2419 30.044V42ZM17.8589 34.3668C17.4134 34.0575 16.7982 33.8627 16.0133 33.7823C15.7378 33.7541 15.4413 33.74 15.124 33.74H9.83197V38.584H15.124C16.3186 38.584 17.2146 38.388 17.812 37.996C18.428 37.604 18.736 36.9974 18.736 36.176C18.736 35.3758 18.4436 34.7727 17.8589 34.3668ZM15.7364 36.1759C15.739 36.1496 15.7533 36.0399 15.83 35.889C15.9263 35.6992 16.0598 35.5651 16.1665 35.4886C16.1721 35.4846 16.1777 35.4807 16.1832 35.477C16.1907 35.4724 16.1971 35.4688 16.202 35.4661C16.2101 35.4616 16.2144 35.4596 16.2144 35.4596C16.2144 35.4596 16.1669 35.481 16.0509 35.5063C15.8656 35.5469 15.5666 35.584 15.124 35.584H12.832M16.888 26.404C17.4666 26.7774 17.756 27.3467 17.756 28.112C17.756 28.8774 17.4666 29.456 16.888 29.848C16.3093 30.24 15.46 30.436 14.34 30.436H9.83197V25.816H14.34C15.46 25.816 16.3093 26.012 16.888 26.404Z" fill="#181818"/>
</svg>
